<?xml version="1.0" encoding="UTF-8"?>
<svg version="1.1" xmlns="http://www.w3.org/2000/svg" width="118" height="127">
<path d="M0,0 L10,0 L10,1 L14,1 L14,2 L17,2 L17,3 L19,3 L19,4 L21,4 L21,5 L22,5 L22,6 L23,6 L23,7 L25,7 L25,8 L26,8 L26,9 L27,9 L27,10 L28,10 L28,12 L29,12 L29,13 L30,13 L30,15 L31,15 L31,16 L32,16 L32,19 L33,19 L33,21 L34,21 L34,32 L33,32 L33,35 L32,35 L32,37 L31,37 L31,39 L30,39 L30,40 L29,40 L29,42 L28,42 L28,43 L27,43 L27,44 L26,44 L26,45 L25,45 L25,46 L24,46 L24,47 L23,47 L23,48 L22,48 L22,49 L20,49 L20,50 L18,50 L18,51 L16,51 L16,52 L13,52 L13,53 L7,53 L7,54 L3,54 L3,53 L-3,53 L-3,52 L-8,52 L-8,53 L-10,53 L-10,54 L-12,54 L-12,55 L-15,55 L-15,56 L-17,56 L-17,57 L-19,57 L-19,58 L-22,58 L-22,57 L-23,57 L-23,56 L-24,56 L-24,52 L-23,52 L-23,47 L-22,47 L-22,43 L-21,43 L-21,37 L-22,37 L-22,35 L-23,35 L-23,32 L-24,32 L-24,22 L-23,22 L-23,19 L-22,19 L-22,17 L-21,17 L-21,15 L-20,15 L-20,13 L-19,13 L-19,12 L-18,12 L-18,11 L-17,11 L-17,9 L-16,9 L-16,8 L-14,8 L-14,7 L-13,7 L-13,6 L-12,6 L-12,5 L-10,5 L-10,4 L-8,4 L-8,3 L-7,3 L-7,2 L-4,2 L-4,1 L0,1 Z " fill="#DDE2E6" transform="translate(52,34)"/>
</svg>
