<?xml version="1.0" encoding="UTF-8"?>
<svg version="1.1" xmlns="http://www.w3.org/2000/svg" width="225" height="98">
<path d="M0 0 C74.25 0 148.5 0 225 0 C225 32.34 225 64.68 225 98 C150.75 98 76.5 98 0 98 C0 65.66 0 33.32 0 0 Z " fill="#FDFDFD" transform="translate(0,0)"/>
<path d="M0 0 C2.64 0 5.28 0 8 0 C12.80898731 9.22325611 16.90444164 18.64517912 20.875 28.25 C21.47356773 29.68896462 22.0725239 31.12776774 22.671875 32.56640625 C24.11905191 36.04243185 25.56101108 39.52057726 27 43 C29.04128119 40.95871881 29.64281379 39.75165326 30.67993164 37.11694336 C30.99688492 36.31949203 31.3138382 35.52204071 31.64039612 34.70042419 C31.97691696 33.83893265 32.31343781 32.9774411 32.66015625 32.08984375 C33.18505898 30.76588341 33.18505898 30.76588341 33.7205658 29.41517639 C34.83945401 26.59119675 35.95140097 23.76455243 37.0625 20.9375 C38.17805962 18.10724396 39.29509678 15.27759441 40.41514587 12.44911194 C41.1124465 10.68740286 41.80697983 8.92459559 42.49855042 7.16062927 C42.81235153 6.36633011 43.12615265 5.57203094 43.44946289 4.75366211 C43.72544815 4.05131943 44.00143341 3.34897675 44.28578186 2.62535095 C45 1 45 1 46 0 C48.64 0 51.28 0 54 0 C54 21.12 54 42.24 54 64 C51.69 64 49.38 64 47 64 C46.67 48.82 46.34 33.64 46 18 C41.38 29.88 36.76 41.76 32 54 C29.03 54 26.06 54 23 54 C17.4291952 42.51021509 12.75928961 30.89822404 8 19 C7.67 33.85 7.34 48.7 7 64 C4.69 64 2.38 64 0 64 C0 42.88 0 21.76 0 0 Z " fill="#777777" transform="translate(74,18)"/>
<path d="M0 0 C20.63636364 0 20.63636364 0 25.734375 4.546875 C32.63949922 11.97810392 32.44671926 20.03450734 32.2421875 29.62890625 C31.94506582 36.56125524 30.88350519 41.597858 25.6875 46.4375 C18.01420731 52.71564856 9.81033896 51 0 51 C0 34.17 0 17.34 0 0 Z " fill="#FDFDFD" transform="translate(23,24)"/>
<path d="M0 0 C34.43396226 0 34.43396226 0 41.9375 6.3125 C50.03028226 15.37413647 50.63499138 25.35849144 50 37 C48.88647797 46.35358504 45.43962936 53.22251269 38.390625 59.45703125 C26.06950725 67.40938666 15.72381321 64 0 64 C0 42.88 0 21.76 0 0 Z M9 6 C9 22.83 9 39.66 9 57 C23.72246377 57.7742752 23.72246377 57.7742752 35.578125 51.64453125 C42.06241465 44.6944162 41.5083316 35.20024572 41.31640625 26.33984375 C40.97240601 19.61384735 38.79539415 15.28063581 34.6875 10.0625 C26.99606671 4.15977212 18.44353006 6 9 6 Z " fill="#7B7B7B" transform="translate(14,18)"/>
<path d="M0 0 C3.21243238 1.96735688 5.45934336 4.01757059 7.375 7.3125 C8.125 11.125 8.125 11.125 8.375 14.3125 C5.735 14.3125 3.095 14.3125 0.375 14.3125 C0.0346875 12.889375 0.0346875 12.889375 -0.3125 11.4375 C-1.28762997 8.18540108 -1.28762997 8.18540108 -3.8671875 7.140625 C-9.71646031 5.38418614 -15.52342094 5.31902626 -21.0625 7.9375 C-26.71726623 13.17850285 -29.6114114 19.04354972 -29.92578125 26.73828125 C-29.94026574 28.36712778 -29.94393833 29.99610179 -29.9375 31.625 C-29.95361328 32.42873047 -29.96972656 33.23246094 -29.98632812 34.06054688 C-29.992305 41.4898069 -28.36353549 49.38933064 -23.625 55.3125 C-18.36455568 59.2052288 -14.12107904 60.26919528 -7.625 59.3125 C-4.17103899 58.37886718 -4.17103899 58.37886718 -1.625 56.3125 C-0.18531273 53.24888223 -0.18531273 53.24888223 0.375 50.3125 C3.015 50.3125 5.655 50.3125 8.375 50.3125 C7.96149697 55.58466362 7.20465008 58.58635398 3.375 62.3125 C-3.72712702 66.45540743 -10.49572443 67.18349381 -18.625 66.3125 C-25.47519789 64.17898864 -30.85425145 60.44735422 -34.625 54.3125 C-39.96375797 43.34315485 -41.70991861 30.78142703 -38.4375 18.875 C-35.15521996 9.71196823 -30.12062082 3.50026686 -21.30078125 -0.828125 C-14.72327096 -2.94061006 -6.31846891 -2.93909948 0 0 Z " fill="#7B7B7B" transform="translate(177.625,17.6875)"/>
<path d="M0 0 C17.82 0 35.64 0 54 0 C54 2.31 54 4.62 54 7 C36.18 7 18.36 7 0 7 C0 4.69 0 2.38 0 0 Z " fill="#777777" transform="translate(160,39)"/>
<path d="M0 0 C11.55 0 23.1 0 35 0 C35 2.31 35 4.62 35 7 C23.45 7 11.9 7 0 7 C0 4.69 0 2.38 0 0 Z " fill="#777777" transform="translate(178,53)"/>
</svg>
