<?xml version="1.0" encoding="UTF-8"?>
<svg version="1.1" xmlns="http://www.w3.org/2000/svg" width="229" height="130">
<path d="M0 0 C75.57 0 151.14 0 229 0 C229 42.9 229 85.8 229 130 C153.43 130 77.86 130 0 130 C0 87.1 0 44.2 0 0 Z " fill="#FEFEFE" transform="translate(0,0)"/>
<path d="M0 0 C8.18197572 7.83607106 16.1306267 17.67533712 16.9375 29.375 C16.855 30.15875 16.7725 30.9425 16.6875 31.75 C14.96223958 32.62890625 13.23697917 33.5078125 11.51171875 34.38671875 C9.05298187 36.22419021 7.99959177 37.97914759 6.6875 40.75 C6.21667564 43.69924807 6.21667564 43.69924807 6.3125 46.75 C6.30476562 47.760625 6.29703125 48.77125 6.2890625 49.8125 C6.93287289 54.55902367 8.94651105 57.07637368 12.4375 60.25 C13.18 61.075 13.9225 61.9 14.6875 62.75 C14.0377828 71.55071475 6.4584818 79.76897008 0.35546875 85.609375 C-14.41111246 97.45723226 -29.78320655 100.05925119 -48.3125 98.75 C-62.23175419 96.31899253 -74.94278397 88.22725608 -83.42578125 76.9375 C-86.55170915 72.17418129 -88.48393553 68.23569342 -90.3125 62.75 C-97.5725 62.75 -104.8325 62.75 -112.3125 62.75 C-112.3125 62.09 -112.3125 61.43 -112.3125 60.75 C-109.6725 60.75 -107.0325 60.75 -104.3125 60.75 C-104.60125 59.90695313 -104.89 59.06390625 -105.1875 58.1953125 C-105.55875 57.09960938 -105.93 56.00390625 -106.3125 54.875 C-106.68375 53.78445312 -107.055 52.69390625 -107.4375 51.5703125 C-108.3125 48.75 -108.3125 48.75 -108.3125 46.75 C-113.2625 47.08 -118.2125 47.41 -123.3125 47.75 C-125.17790627 52.45406799 -126.68093005 56.69744036 -127.3125 61.75 C-125.6625 61.75 -124.0125 61.75 -122.3125 61.75 C-122.3125 62.08 -122.3125 62.41 -122.3125 62.75 C-127.2625 62.75 -132.2125 62.75 -137.3125 62.75 C-135.3125 61.75 -133.3125 60.75 -131.3125 59.75 C-130.41029564 57.86531732 -130.41029564 57.86531732 -129.6484375 55.53735352 C-129.17784912 54.19574913 -129.17784912 54.19574913 -128.69775391 52.82704163 C-128.36437012 51.85415695 -128.03098633 50.88127228 -127.6875 49.87890625 C-127.33993652 48.88624252 -126.99237305 47.8935788 -126.63427734 46.87083435 C-125.52007555 43.68709466 -124.41541552 40.50016563 -123.3125 37.3125 C-122.20906147 34.1286001 -121.10348402 30.94553166 -119.99072266 27.76487732 C-119.29729797 25.78250288 -118.60932412 23.79821198 -117.92724609 21.81190491 C-117.61352051 20.91434982 -117.29979492 20.01679474 -116.9765625 19.09204102 C-116.56591553 17.90409691 -116.56591553 17.90409691 -116.14697266 16.69215393 C-115.3125 14.75 -115.3125 14.75 -113.3125 12.75 C-113.10174332 13.32185028 -112.89098663 13.89370056 -112.67384338 14.48287964 C-110.48535785 20.42024823 -108.29527338 26.35702522 -106.10424805 32.29345703 C-105.28612675 34.51075262 -104.46841699 36.7282001 -103.65112305 38.94580078 C-102.47812642 42.12832771 -101.3036639 45.31031026 -100.12890625 48.4921875 C-99.76221329 49.48805878 -99.39552032 50.48393005 -99.01771545 51.50997925 C-98.6774382 52.43078278 -98.33716095 53.3515863 -97.98657227 54.30029297 C-97.6867897 55.1130368 -97.38700714 55.92578064 -97.07814026 56.76315308 C-96.33719852 58.78033923 -96.33719852 58.78033923 -95.3125 60.75 C-93.28786745 61.40213292 -93.28786745 61.40213292 -91.3125 61.75 C-91.5290625 61.12996094 -91.745625 60.50992188 -91.96875 59.87109375 C-96.52814603 45.36968138 -95.31687354 30.19545831 -88.3125 16.75 C-80.03146718 1.13871961 -66.97956319 -8.07671675 -50.3125 -13.25 C-32.29972266 -17.34381303 -13.80723902 -11.72669615 0 0 Z " fill="#767676" transform="translate(143.3125,20.25)"/>
<path d="M0 0 C0.33 0.66 0.66 1.32 1 2 C1.86625 1.9175 2.7325 1.835 3.625 1.75 C8.95375485 2.14472258 11.85481622 4.70006166 15.3125 8.625 C18.6435967 13.31321017 18.46854016 17.36884144 18 23 C16.07278083 28.67458978 12.35898258 32.32050871 7 35 C3.85750722 35.63241037 1.13467845 35.70654657 -2 35 C-6.09254311 32.05720145 -9.39313564 28.82059308 -11 24 C-11.58762026 18.25811059 -12.12832826 12.77275554 -8.6875 7.875 C-6 5 -6 5 -3 3 C-2.01 3 -1.02 3 0 3 C0 2.01 0 1.02 0 0 Z " fill="#878787" transform="translate(160,49)"/>
<path d="M0 0 C1.68663511 2.52995267 2.64725689 4.45337612 3.67993164 7.25610352 C3.99688492 8.11031387 4.3138382 8.96452423 4.64039612 9.84461975 C5.14517738 11.22284157 5.14517738 11.22284157 5.66015625 12.62890625 C6.0100914 13.57434799 6.36002655 14.51978973 6.7205658 15.49388123 C7.8382155 18.51541272 8.95057387 21.53885806 10.0625 24.5625 C11.17894445 27.58935293 12.29648067 30.61579757 13.41514587 33.64183044 C14.11112187 35.52543945 14.80563016 37.40959152 15.49855042 39.29432678 C15.81235153 40.14538498 16.12615265 40.99644318 16.44946289 41.87329102 C16.72544815 42.62369156 17.00143341 43.3740921 17.28578186 44.14723206 C17.98604507 46.05173058 17.98604507 46.05173058 19 48 C20.65 48 22.3 48 24 48 C24.33 48.66 24.66 49.32 25 50 C17.41 50 9.82 50 2 50 C2 49.34 2 48.68 2 48 C4.64 48 7.28 48 10 48 C9.71125 47.15695313 9.4225 46.31390625 9.125 45.4453125 C8.75375 44.34960938 8.3825 43.25390625 8 42.125 C7.62875 41.03445312 7.2575 39.94390625 6.875 38.8203125 C6 36 6 36 6 34 C1.05 34.33 -3.9 34.66 -9 35 C-10.86540627 39.70406799 -12.36843005 43.94744036 -13 49 C-11.35 49 -9.7 49 -8 49 C-8 49.33 -8 49.66 -8 50 C-12.95 50 -17.9 50 -23 50 C-21 49 -19 48 -17 47 C-16.09090743 45.11547623 -16.09090743 45.11547623 -15.32006836 42.78735352 C-14.84463844 41.44574913 -14.84463844 41.44574913 -14.35960388 40.07704163 C-14.02308304 39.10415695 -13.68656219 38.13127228 -13.33984375 37.12890625 C-12.9899086 36.13624252 -12.63997345 35.1435788 -12.2794342 34.12083435 C-11.15858527 30.93708804 -10.04777252 27.74994832 -8.9375 24.5625 C-7.82161813 21.37937083 -6.7037226 18.19695782 -5.58485413 15.01487732 C-4.88819187 13.03132242 -4.19366962 11.04701442 -3.50144958 9.06190491 C-3.18764847 8.16434982 -2.87384735 7.26679474 -2.55053711 6.34204102 C-2.27455185 5.55007828 -1.99856659 4.75811554 -1.71421814 3.94215393 C-1 2 -1 2 0 0 Z " fill="#7C7C7C" transform="translate(29,33)"/>
<path d="M0 0 C0.33 6.93 0.66 13.86 1 21 C1.66 20.34 2.32 19.68 3 19 C5.20703125 18.62890625 5.20703125 18.62890625 7.8125 18.5625 C9.09060547 18.50255859 9.09060547 18.50255859 10.39453125 18.44140625 C14.46615801 19.31433373 15.66757363 20.52211157 18 24 C18.61063554 28.28736825 18.46978378 32.49324536 18.3125 36.8125 C18.28994141 37.98232422 18.26738281 39.15214844 18.24414062 40.35742188 C18.18532091 43.23958769 18.10317141 46.11913681 18 49 C19.32 49.33 20.64 49.66 22 50 C17.05 50 12.1 50 7 50 C7 49.67 7 49.34 7 49 C8.65 49 10.3 49 12 49 C11.67 40.09 11.34 31.18 11 22 C8.36 22 5.72 22 3 22 C0.36008732 24.63991268 0.69759203 25.97946296 0.5859375 29.6640625 C0.52792969 31.34628906 0.52792969 31.34628906 0.46875 33.0625 C0.42234375 34.8259375 0.42234375 34.8259375 0.375 36.625 C0.31699219 38.40003906 0.31699219 38.40003906 0.2578125 40.2109375 C0.16331155 43.14046691 0.07775442 46.06998597 0 49 C1.32 49.33 2.64 49.66 4 50 C-0.62 50 -5.24 50 -10 50 C-8.02 49.505 -8.02 49.505 -6 49 C-6 34.15 -6 19.3 -6 4 C-7.65 3.67 -9.3 3.34 -11 3 C-11 2.67 -11 2.34 -11 2 C-9.5422647 1.664061 -8.08378894 1.33133376 -6.625 1 C-5.40683594 0.7215625 -5.40683594 0.7215625 -4.1640625 0.4375 C-2 0 -2 0 0 0 Z " fill="#FDFDFD" transform="translate(110,33)"/>
<path d="M0 0 C2.75 -0.3125 2.75 -0.3125 6 0 C8.48491096 2.08039057 9.76856966 3.68478206 10.33886719 6.92578125 C10.46678651 9.13213378 10.44747648 11.29137473 10.375 13.5 C10.37371094 14.24636719 10.37242187 14.99273437 10.37109375 15.76171875 C10.2878382 20.98831734 9.85283084 25.14716916 6 29 C2.375 29.125 2.375 29.125 -1 29 C-0.9278125 28.33097656 -0.855625 27.66195312 -0.78125 26.97265625 C0.08928248 17.96506318 0.09637079 9.03743859 0 0 Z " fill="#FCFCFC" transform="translate(161,53)"/>
<path d="M0 0 C0.66 0 1.32 0 2 0 C2 1.98 2 3.96 2 6 C4.64 6 7.28 6 10 6 C9.67 6.66 9.34 7.32 9 8 C6.69 8 4.38 8 2 8 C2.33 16.58 2.66 25.16 3 34 C5.64 33.67 8.28 33.34 11 33 C11 33.66 11 34.32 11 35 C7.31556074 37.81751238 4.60107066 38.58737072 0 38 C-2.14550781 36.86401367 -2.14550781 36.86401367 -4 35 C-4.54589844 32.1809082 -4.54589844 32.1809082 -4.609375 28.80078125 C-4.64160156 27.59228516 -4.67382812 26.38378906 -4.70703125 25.13867188 C-4.72121094 23.87603516 -4.73539062 22.61339844 -4.75 21.3125 C-4.79447266 19.40114258 -4.79447266 19.40114258 -4.83984375 17.45117188 C-4.91064049 14.30071708 -4.96329047 11.1510066 -5 8 C-6.32 7.34 -7.64 6.68 -9 6 C-7.88625 5.566875 -6.7725 5.13375 -5.625 4.6875 C-1.82487666 3.30088881 -1.82487666 3.30088881 0 0 Z " fill="#F2F2F2" transform="translate(74,46)"/>
<path d="M0 0 C0 2.31 0 4.62 0 7 C-0.70125 6.34 -1.4025 5.68 -2.125 5 C-5.44377677 2.69128572 -7.04644974 2.55073292 -11 3 C-12.35618499 4.12534105 -12.35618499 4.12534105 -12.0625 7.0625 C-12.041875 8.031875 -12.02125 9.00125 -12 10 C-11.16855469 10.39832031 -10.33710938 10.79664063 -9.48046875 11.20703125 C-8.39378906 11.73683594 -7.30710938 12.26664063 -6.1875 12.8125 C-4.56908203 13.59560547 -4.56908203 13.59560547 -2.91796875 14.39453125 C1.45311892 16.7995072 1.45311892 16.7995072 3 19 C3.42690815 23.21474771 2.67501897 26.96150928 0.375 30.5 C-5.1113704 33.96507604 -10.91495184 32.96079708 -17 32 C-17 28.7 -17 25.4 -17 22 C-16.34 23.32 -15.68 24.64 -15 26 C-13.45952223 28.37419918 -13.45952223 28.37419918 -11 30 C-8.19883712 30.39860602 -5.85782341 30.23424782 -3 30 C-1.64554633 28.85712614 -1.64554633 28.85712614 -1.6875 25.8125 C-1.84946966 23.83134334 -1.84946966 23.83134334 -3 22 C-5.97364592 20.1175604 -8.97670456 18.73336493 -12.21484375 17.359375 C-15 16 -15 16 -17 13 C-17.65491613 7.92440002 -17.84709156 6.0989296 -14.6875 2 C-10.32275285 -1.14472144 -5.12262512 -0.41017461 0 0 Z " fill="#7E7E7E" transform="translate(215,51)"/>
<path d="M0 0 C0.66 0 1.32 0 2 0 C2.33 6.93 2.66 13.86 3 21 C3.66 20.34 4.32 19.68 5 19 C7.20703125 18.62890625 7.20703125 18.62890625 9.8125 18.5625 C11.09060547 18.50255859 11.09060547 18.50255859 12.39453125 18.44140625 C16.46615801 19.31433373 17.66757363 20.52211157 20 24 C20.61063554 28.28736825 20.46978378 32.49324536 20.3125 36.8125 C20.28994141 37.98232422 20.26738281 39.15214844 20.24414062 40.35742188 C20.18532091 43.23958769 20.10317141 46.11913681 20 49 C21.32 49.33 22.64 49.66 24 50 C19.05 50 14.1 50 9 50 C9 49.67 9 49.34 9 49 C10.65 49 12.3 49 14 49 C13.67 40.09 13.34 31.18 13 22 C5.50847518 21.26039974 5.50847518 21.26039974 2 24 C0.31699331 22.31699331 0.77190923 20.17991273 0.68359375 17.87109375 C0.64169922 16.83662109 0.59980469 15.80214844 0.55664062 14.73632812 C0.51732422 13.64771484 0.47800781 12.55910156 0.4375 11.4375 C0.39431641 10.34501953 0.35113281 9.25253906 0.30664062 8.12695312 C0.20017932 5.41810436 0.09816484 2.70916008 0 0 Z " fill="#F3F3F3" transform="translate(108,33)"/>
<path d="M0 0 C0.8971875 0.309375 0.8971875 0.309375 1.8125 0.625 C1.173125 1.388125 0.53375 2.15125 -0.125 2.9375 C-4.21683402 8.26928373 -3.6659495 14.16593172 -3.1875 20.625 C-2.43567675 23.74594071 -1.44045244 26.6716121 -0.1875 29.625 C-4.4531434 28.80643304 -6.31843353 26.88177815 -9.1875 23.625 C-10.97786973 18.25389081 -11.51833084 11.61551564 -9.17578125 6.3515625 C-4.20694803 -0.72119109 -4.20694803 -0.72119109 0 0 Z " fill="#F8F8F8" transform="translate(159.1875,52.375)"/>
<path d="M0 0 C0.66 0.33 1.32 0.66 2 1 C2.19865739 9.89543642 2.33447255 18.32910197 0 27 C-3 26 -3 26 -4.1875 23.6875 C-5.62375899 17.16909381 -6.01316828 10.67108002 -3.625 4.375 C-2 2 -2 2 0 0 Z " fill="#7B7B7B" transform="translate(160,53)"/>
<path d="M0 0 C2.60649468 2.60649468 3.44024981 5.53134321 4.625 8.9375 C4.85445312 9.57107422 5.08390625 10.20464844 5.3203125 10.85742188 C6.32801716 13.70958596 7 15.95183307 7 19 C2.71 19 -1.58 19 -6 19 C-5.48405058 13.19556907 -4.24367342 4.24367342 0 0 Z " fill="#F8F8F8" transform="translate(27,46)"/>
<path d="M0 0 C0.66 0.99 1.32 1.98 2 3 C1.32788889 5.83747778 0.57330768 8.44554976 -0.375 11.1875 C-0.6225 11.93708984 -0.87 12.68667969 -1.125 13.45898438 C-1.73806985 15.30998373 -2.36749619 17.15555098 -3 19 C1.29 19 5.58 19 10 19 C10 19.66 10 20.32 10 21 C5.38 21.33 0.76 21.66 -4 22 C-5.86540627 26.70406799 -7.36843005 30.94744036 -8 36 C-6.35 36 -4.7 36 -3 36 C-3 36.33 -3 36.66 -3 37 C-7.95 37 -12.9 37 -18 37 C-16 36 -14 35 -12 34 C-10.97192595 31.49706852 -10.05276313 29.02195216 -9.1796875 26.46484375 C-8.91616486 25.71159317 -8.65264221 24.95834259 -8.38113403 24.18226624 C-7.53887096 21.76967769 -6.70684867 19.35369677 -5.875 16.9375 C-5.30665924 15.30380334 -4.73765726 13.67033655 -4.16796875 12.03710938 C-2.77095192 8.02736919 -1.38311099 4.01455697 0 0 Z " fill="#8C8C8C" transform="translate(24,46)"/>
<path d="M0 0 C0.98484375 0.02707031 1.9696875 0.05414063 2.984375 0.08203125 C3.73203125 0.11683594 4.4796875 0.15164062 5.25 0.1875 C5.25 2.4975 5.25 4.8075 5.25 7.1875 C4.54875 6.5275 3.8475 5.8675 3.125 5.1875 C-0.18460229 2.88516797 -1.81225823 2.82119844 -5.75 3.1875 C-6.41 4.8375 -7.07 6.4875 -7.75 8.1875 C-8.41 7.5275 -9.07 6.8675 -9.75 6.1875 C-10.74 6.6825 -10.74 6.6825 -11.75 7.1875 C-9.35239168 1.39327989 -6.15973262 -0.21999045 0 0 Z " fill="#929292" transform="translate(209.75,50.8125)"/>
<path d="M0 0 C0.66 0.99 1.32 1.98 2 3 C4.56282742 3.72965366 4.56282742 3.72965366 7 4 C7 4.33 7 4.66 7 5 C2.05 5 -2.9 5 -8 5 C-6.68 4.34 -5.36 3.68 -4 3 C-2.64886795 2.02418241 -1.31053056 1.02970259 0 0 Z " fill="#838383" transform="translate(14,78)"/>
</svg>
