<?xml version="1.0" encoding="UTF-8"?>
<svg version="1.1" xmlns="http://www.w3.org/2000/svg" width="249" height="96">
<path d="M0 0 C82.17 0 164.34 0 249 0 C249 31.68 249 63.36 249 96 C166.83 96 84.66 96 0 96 C0 64.32 0 32.64 0 0 Z " fill="#FEFEFE" transform="translate(0,0)"/>
<path d="M0 0 C3.53571429 0.53571429 3.53571429 0.53571429 5 2 C5.13858338 4.93624735 5.21323695 7.84718884 5.23828125 10.78515625 C5.246353 11.67480576 5.25442474 12.56445526 5.26274109 13.48106384 C5.27660515 15.37171468 5.28731686 17.26239079 5.29516602 19.15307617 C5.31228477 22.0263747 5.35613753 24.89849436 5.40039062 27.77148438 C5.41052562 29.60936654 5.41903919 31.4472585 5.42578125 33.28515625 C5.44328934 34.13755386 5.46079742 34.98995148 5.47883606 35.86817932 C5.45579701 42.30226015 4.04825049 47.70175522 -0.41215515 52.52796936 C-5.76263285 57.25297132 -10.46041521 58.49140048 -17.44140625 58.3046875 C-22.57085721 57.69385212 -26.2838875 55.85818718 -29.79296875 52.05859375 C-35.23494242 45.03961108 -35.92641867 38.80618196 -35 30 C-33.04134097 24.81483625 -29.66474254 20.99021958 -25 18 C-18.9761793 16.15419159 -13.18455192 16.11567207 -7.5 18.9375 C-4.28 20.72 -4.28 20.72 -3 22 C-2.98018066 21.40461426 -2.96036133 20.80922852 -2.93994141 20.19580078 C-2.84483874 17.50507847 -2.73510158 14.81514852 -2.625 12.125 C-2.5940625 11.18785156 -2.563125 10.25070313 -2.53125 9.28515625 C-2.49257812 8.38925781 -2.45390625 7.49335938 -2.4140625 6.5703125 C-2.3826416 5.74289551 -2.3512207 4.91547852 -2.31884766 4.06298828 C-2 2 -2 2 0 0 Z " fill="#787878" transform="translate(180,18)"/>
<path d="M0 0 C4.75171516 2.86372149 7.60909023 7.2178957 9.33984375 12.41015625 C10.04474639 19.5631847 9.68702282 25.50657973 5.33984375 31.41015625 C0.76872517 36.44352277 -4.34940953 38.42965342 -11.03515625 38.78515625 C-16.62477499 38.63459413 -21.0888769 36.792179 -25.19921875 32.984375 C-30.32201057 27.18753162 -31.11978995 21.8461851 -30.97265625 14.3515625 C-30.3804813 8.77771578 -27.87229613 5.3076702 -23.72265625 1.59765625 C-15.88100132 -4.00352585 -8.63716264 -3.71304835 0 0 Z " fill="#7A7A7A" transform="translate(234.66015625,37.58984375)"/>
<path d="M0 0 C4.35619598 2.99540333 6.41919646 7.51540187 8.05078125 12.41015625 C8.17578125 16.03515625 8.17578125 16.03515625 8.05078125 19.41015625 C7.05078125 20.41015625 7.05078125 20.41015625 4.18334961 20.52368164 C2.93175049 20.51844482 1.68015137 20.51320801 0.390625 20.5078125 C-0.6060746 20.50569008 -0.6060746 20.50569008 -1.62290955 20.50352478 C-3.75255774 20.49791143 -5.88210214 20.48535679 -8.01171875 20.47265625 C-9.45247244 20.46764296 -10.89322778 20.46307976 -12.33398438 20.45898438 C-15.87242977 20.4479377 -19.41081414 20.43066417 -22.94921875 20.41015625 C-21.09149892 25.31921084 -21.09149892 25.31921084 -17.88671875 29.34765625 C-13.61250931 30.8936469 -9.44722062 30.97332071 -4.94921875 30.41015625 C-3.60190563 29.77221457 -2.26615435 29.10865668 -0.94921875 28.41015625 C1.80078125 28.28515625 1.80078125 28.28515625 4.05078125 28.41015625 C4.54578125 30.39015625 4.54578125 30.39015625 5.05078125 32.41015625 C3.75981344 33.2237662 2.4679825 34.03600671 1.17578125 34.84765625 C0.45648438 35.30011719 -0.2628125 35.75257812 -1.00390625 36.21875 C-5.58363099 39.02360149 -9.65917027 38.96007344 -14.94921875 38.41015625 C-20.8767523 36.61858739 -24.46730013 33.42821543 -27.94921875 28.41015625 C-31.0189387 22.01221362 -31.00055428 14.74969263 -28.88671875 8.03515625 C-21.46156761 -2.02472593 -11.55426797 -5.56760063 0 0 Z " fill="#7C7C7C" transform="translate(64.94921875,37.58984375)"/>
<path d="M0 0 C1.9375 0.8125 1.9375 0.8125 3.9375 2.8125 C4.72125 2.3175 5.505 1.8225 6.3125 1.3125 C12.0634663 -1.06721019 17.36405397 -1.06150054 23.25 0.9375 C28.06608304 4.29755793 31.12146931 8.25328451 32.9375 13.8125 C33.18041992 16.65917969 33.18041992 16.65917969 33.16796875 19.734375 C33.16603516 20.84167969 33.16410156 21.94898438 33.16210938 23.08984375 C33.14374023 24.80880859 33.14374023 24.80880859 33.125 26.5625 C33.12435547 27.72394531 33.12371094 28.88539062 33.12304688 30.08203125 C33.07783565 38.67216435 33.07783565 38.67216435 31.9375 39.8125 C29.5 40 29.5 40 26.9375 39.8125 C24.30394857 37.17894857 24.68569139 35.95837459 24.6640625 32.2890625 C24.6434375 31.185625 24.6228125 30.0821875 24.6015625 28.9453125 C24.57560865 26.61465655 24.55732691 24.28390202 24.546875 21.953125 C24.52367188 20.84710938 24.50046875 19.74109375 24.4765625 18.6015625 C24.46834473 17.58787598 24.46012695 16.57418945 24.45166016 15.52978516 C23.8078064 12.12708227 22.58769762 10.96768056 19.9375 8.8125 C16.74842735 7.21796367 13.40805318 7.42688298 9.9375 7.8125 C6.19202396 9.54217713 6.19202396 9.54217713 3.9375 12.8125 C3.79556489 14.75880348 3.71135186 16.70946238 3.65625 18.66015625 C3.61886719 19.82224609 3.58148438 20.98433594 3.54296875 22.18164062 C3.47254479 24.64778328 3.40223264 27.11392913 3.33203125 29.58007812 C3.29464844 30.74087891 3.25726563 31.90167969 3.21875 33.09765625 C3.17331055 34.70459351 3.17331055 34.70459351 3.12695312 36.34399414 C2.9375 38.8125 2.9375 38.8125 1.9375 39.8125 C-0.5 40 -0.5 40 -3.0625 39.8125 C-5.570721 37.304279 -5.31879767 35.75096057 -5.36604309 32.32655334 C-5.36513168 31.5807048 -5.36422028 30.83485626 -5.36328125 30.06640625 C-5.36756638 29.29948959 -5.3718515 28.53257294 -5.37626648 27.74241638 C-5.38201323 26.11922188 -5.38250749 24.49600162 -5.37817383 22.87280273 C-5.3750166 20.38806206 -5.39845754 17.90451498 -5.42382812 15.41992188 C-5.42610136 13.8437515 -5.4268045 12.26757793 -5.42578125 10.69140625 C-5.43959587 9.57566978 -5.43959587 9.57566978 -5.45368958 8.43739319 C-5.40766245 3.30881084 -5.40766245 3.30881084 -3.66870117 0.80834961 C-2.0625 -0.1875 -2.0625 -0.1875 0 0 Z " fill="#7D7D7D" transform="translate(94.0625,35.1875)"/>
<path d="M0 0 C3.24280821 1.60225366 5.19479398 3.93859207 7.375 6.8125 C8.74179371 11.59627797 8.47133172 15.63837504 6.875 20.25 C4.2028014 24.16922461 1.59451609 26.45179624 -3.14453125 27.453125 C-7.7270943 27.79662206 -10.42690187 27.12961982 -14 24.1875 C-16.76314999 21.59704688 -17.83448636 19.57644961 -18.23828125 15.73046875 C-18.40745111 9.93417498 -17.98003501 6.54861143 -14 2 C-9.5357313 -0.97617913 -5.23275258 -0.74006072 0 0 Z " fill="#FCFCFC" transform="translate(229,42)"/>
<path d="M0 0 C4.57923841 1.83169536 6.77915243 4.64055847 9 9 C9.81155954 15.39103136 8.77109363 18.80200607 5 24 C1.39800523 27.19033823 -2.11513226 27.57741226 -6.78125 27.421875 C-10.64770813 26.68670338 -12.3349795 24.860022 -15 22 C-17.53672584 17.76340634 -17.6870096 13.82582357 -17 9 C-12.90543409 1.10333718 -8.64438494 -1.11540451 0 0 Z " fill="#FCFCFC" transform="translate(169,42)"/>
<path d="M0 0 C3.53571429 0.53571429 3.53571429 0.53571429 5 2 C5.11160651 3.36499458 5.1566756 4.7355352 5.17358398 6.10498047 C5.18707382 6.97613495 5.20056366 7.84728943 5.21446228 8.74484253 C5.22490067 9.69271637 5.23533905 10.64059021 5.24609375 11.6171875 C5.27903225 13.60547315 5.3122439 15.59375429 5.34570312 17.58203125 C5.39315038 20.73125086 5.43756793 23.88045217 5.47680664 27.02978516 C5.51646006 30.05911668 5.56802381 33.08806554 5.62109375 36.1171875 C5.6295079 37.06101288 5.63792206 38.00483826 5.64659119 38.9772644 C5.66323318 39.85472321 5.67987518 40.73218201 5.69702148 41.63623047 C5.70732895 42.4082077 5.71763641 43.18018494 5.72825623 43.97555542 C5.89110737 46.31232569 5.89110737 46.31232569 8 49 C8.845625 49.309375 9.69125 49.61875 10.5625 49.9375 C13 51 13 51 13.9375 53 C13.958125 53.66 13.97875 54.32 14 55 C12 57 12 57 8.1875 57.5 C5.6608329 57.44946666 4.41309385 57.31939208 2.3984375 55.76171875 C-0.9561445 51.80880487 -2.12125693 48.53519663 -2.14526367 43.46850586 C-2.15164352 42.55423325 -2.15802338 41.63996063 -2.16459656 40.69798279 C-2.16570938 39.71354691 -2.1668222 38.72911102 -2.16796875 37.71484375 C-2.17129715 36.70281387 -2.17462555 35.690784 -2.17805481 34.64808655 C-2.18311777 32.50880386 -2.18546333 30.36951328 -2.18530273 28.23022461 C-2.18749368 24.94697192 -2.20566835 21.66405279 -2.22460938 18.38085938 C-2.22754246 16.30468865 -2.22952782 14.22851633 -2.23046875 12.15234375 C-2.23765427 11.16588364 -2.24483978 10.17942352 -2.25224304 9.16307068 C-2.24916641 8.25195023 -2.24608978 7.34082977 -2.24291992 6.40209961 C-2.24434494 5.59840439 -2.24576996 4.79470917 -2.24723816 3.96665955 C-2 2 -2 2 0 0 Z " fill="#767676" transform="translate(10,18)"/>
<path d="M0 0 C3.0625 1.625 3.0625 1.625 5 4 C5.33 5.98 5.66 7.96 6 10 C-1.59 10 -9.18 10 -17 10 C-16.05653757 5.28268787 -15.66165406 3.78975286 -11.9453125 0.953125 C-8.08529534 -0.93812839 -4.15641237 -0.74122687 0 0 Z " fill="#FCFCFC" transform="translate(59,42)"/>
</svg>
