<?xml version="1.0" encoding="UTF-8"?>
<svg version="1.1" xmlns="http://www.w3.org/2000/svg" width="137" height="78">
<path d="M0 0 C13.81246726 -1.35777894 13.81246726 -1.35777894 18.4921875 1.546875 C20.57423523 3.9140164 22.27020907 6.36378417 24 9 C25.29851704 10.71263317 26.62728788 12.39907951 27.95751953 14.0871582 C31.03683867 18.00815791 34.00877587 22.01170117 37 26 C37.33 17.42 37.66 8.84 38 0 C42.62 0 47.24 0 52 0 C52.02255497 7.80575587 52.04091738 15.61149407 52.05181217 23.41727352 C52.05704002 27.0414596 52.06413587 30.6656223 52.07543945 34.28979492 C52.08627184 37.78459975 52.09227758 41.27938204 52.09487724 44.77420235 C52.09763551 46.76239389 52.10544688 48.75057631 52.11329651 50.73875427 C52.11337204 51.93992386 52.11344757 53.14109344 52.11352539 54.37866211 C52.115746 55.44233505 52.11796661 56.506008 52.12025452 57.60191345 C52 60 52 60 51 61 C48.81360547 61.07258946 46.62499611 61.08373783 44.4375 61.0625 C42.64119141 61.04896484 42.64119141 61.04896484 40.80859375 61.03515625 C39.88175781 61.02355469 38.95492187 61.01195312 38 61 C37.99613281 59.28103516 37.99613281 59.28103516 37.9921875 57.52734375 C38.1656407 47.8008068 38.1656407 47.8008068 33.9375 39.4375 C32.4834375 38.2309375 32.4834375 38.2309375 31 37 C28.32601801 40.01760117 26.37463013 43.07785045 24.546875 46.64453125 C17.47549533 59.975382 17.47549533 59.975382 12.87890625 61.87792969 C8.12842476 62.65645763 3.66848771 62.01308553 -1 61 C0.31480478 57.47704255 1.86974072 54.38472707 3.86328125 51.19921875 C4.42080078 50.30396484 4.97832031 49.40871094 5.55273438 48.48632812 C6.42381836 47.1009082 6.42381836 47.1009082 7.3125 45.6875 C8.16618164 44.31948242 8.16618164 44.31948242 9.03710938 42.92382812 C9.59849609 42.02470703 10.15988281 41.12558594 10.73828125 40.19921875 C11.28564941 39.31927246 11.83301758 38.43932617 12.39697266 37.53271484 C13.42888941 35.90233037 14.48429216 34.28645712 15.56787109 32.68994141 C16.03402832 31.99433105 16.50018555 31.2987207 16.98046875 30.58203125 C17.39578857 29.98237549 17.8111084 29.38271973 18.23901367 28.76489258 C19.24330828 26.43571526 18.89237169 25.3374037 18 23 C16.23053404 20.4993185 16.23053404 20.4993185 14 17.9375 C13.19691406 16.97972656 12.39382812 16.02195312 11.56640625 15.03515625 C10.71949219 14.03355469 9.87257813 13.03195313 9 12 C7.30462033 9.96465643 5.62045959 7.92068939 3.9375 5.875 C3.18339844 4.96492187 2.42929688 4.05484375 1.65234375 3.1171875 C0 1 0 1 0 0 Z " fill="#818181" transform="translate(12,9)"/>
<path d="M0 0 C4.62 0 9.24 0 14 0 C14.33 8.58 14.66 17.16 15 26 C16.629375 23.916875 18.25875 21.83375 19.9375 19.6875 C33.11195504 2.88804496 33.11195504 2.88804496 36 0 C38.69654854 -0.07319621 41.36691458 -0.09242537 44.0625 -0.0625 C44.82111328 -0.05798828 45.57972656 -0.05347656 46.36132812 -0.04882812 C48.24091871 -0.0370068 50.12046899 -0.01907078 52 0 C48.99775032 4.73125611 45.62730689 8.91454552 41.9375 13.125 C40.38865478 14.90211595 38.84291617 16.68103093 37.31201172 18.47363281 C36.25178002 19.70708435 35.16326127 20.91618665 34.06640625 22.1171875 C32.76474629 23.98538653 32.76474629 23.98538653 33.26660156 26.35522461 C34.03558925 29.12834167 35.0108654 30.86188555 36.66796875 33.19921875 C37.20728027 33.97700684 37.7465918 34.75479492 38.30224609 35.55615234 C38.86250488 36.36262207 39.42276367 37.1690918 40 38 C42.13299699 41.25254378 44.22329966 44.53170097 46.3125 47.8125 C46.84939453 48.64458984 47.38628906 49.47667969 47.93945312 50.33398438 C48.45056641 51.13771484 48.96167969 51.94144531 49.48828125 52.76953125 C49.94759033 53.48729736 50.40689941 54.20506348 50.88012695 54.94458008 C51.98514578 56.9727365 52.55402782 58.74347598 53 61 C47.63888769 62.16338858 42.21510013 63.15855203 37 61 C32.138779 56.36458728 29.22736577 50.10678413 26.19726562 44.19384766 C24.74643788 41.5353774 23.0060719 39.26386151 21 37 C16.88963456 40.41072877 14.94521943 42.91345375 14.37890625 48.25 C14.08903513 52.49891209 14.00957929 56.74200425 14 61 C9.71 61 5.42 61 1 61 C-0.18107421 54.4979617 -0.12737969 48.09818888 -0.09765625 41.50390625 C-0.0962413 40.31522446 -0.09482635 39.12654266 -0.09336853 37.90184021 C-0.08779114 34.12203406 -0.07524275 30.34228811 -0.0625 26.5625 C-0.05748208 23.9928394 -0.05291968 21.42317787 -0.04882812 18.85351562 C-0.03782911 12.56898738 -0.02058002 6.28450388 0 0 Z " fill="#7F7F7F" transform="translate(76,9)"/>
</svg>
