<?xml version="1.0" encoding="UTF-8"?>
<svg version="1.1" xmlns="http://www.w3.org/2000/svg" width="80" height="79">
<path d="M0 0 C6.74511117 3.95981651 11.20107337 9.35082736 13.7265625 16.74609375 C15.61005991 24.64274438 14.91680752 31.0154426 10.89453125 38.09375 C6.115344 45.20188129 0.71244445 49.22617361 -7.64453125 51.3828125 C-15.18964602 52.49872863 -22.05768361 50.89043164 -28.29296875 46.53125 C-34.92050099 41.03098131 -38.74408079 35.66477865 -39.9765625 27.06640625 C-40.34729799 19.17111335 -38.07068961 12.71998351 -33.08203125 6.6328125 C-23.77369016 -3.06620714 -12.35864569 -5.61935241 0 0 Z M-17.58203125 13.7578125 C-20.18234027 17.06729671 -20.31659329 19.13270313 -20.05859375 23.25390625 C-19.73721305 25.56520975 -19.73721305 25.56520975 -18.08203125 27.9453125 C-14.68934999 29.94612452 -12.51738964 29.93607798 -8.64453125 29.3828125 C-6.02169791 28.09388963 -6.02169791 28.09388963 -4.64453125 25.3828125 C-4.15714543 22.31449724 -4.02089646 19.43356646 -4.64453125 16.3828125 C-6.68587237 13.71756 -7.65691165 13.3793735 -11.01953125 12.4453125 C-14.63774553 12.11732527 -14.63774553 12.11732527 -17.58203125 13.7578125 Z M-25.70703125 39.0078125 C-26.34640625 39.7915625 -26.98578125 40.5753125 -27.64453125 41.3828125 C-23.93312786 45.83649656 -20.17959954 46.95627775 -14.5078125 47.640625 C-8.43254377 47.9587019 -3.96455899 46.20003759 1.35546875 43.3828125 C1.09602782 40.18304102 0.81148388 38.78182574 -1.64453125 36.6328125 C-9.22058045 33.47612533 -19.48577231 32.83912758 -25.70703125 39.0078125 Z " fill="#E3E6EB" transform="translate(52.64453125,12.6171875)"/>
<path d="M0 0 C1.32 1.65 2.64 3.3 4 5 C-1.79353402 10.25039021 -7.89329159 12.59523626 -15.69921875 12.28515625 C-22.64147893 11.4247403 -27.49748619 9.3739681 -32 4 C-31.34 4 -30.68 4 -30 4 C-29.67 3.34 -29.34 2.68 -29 2 C-28.484375 2.45375 -27.96875 2.9075 -27.4375 3.375 C-21.86833013 7.08777991 -15.51780732 7.72420081 -9 7 C-5.98235165 6.30283672 -3.81809287 5.40904643 -1 4 C-0.23315057 1.9564467 -0.23315057 1.9564467 0 0 Z " fill="#98A5B6" transform="translate(54,52)"/>
<path d="M0 0 C1.32 1.65 2.64 3.3 4 5 C-1.86516854 9.88764045 -1.86516854 9.88764045 -5 11 C-7.25 10.625 -7.25 10.625 -9 10 C-8.01 9.67 -7.02 9.34 -6 9 C-6.99 8.34 -7.98 7.68 -9 7 C-8.43410156 6.82984375 -7.86820313 6.6596875 -7.28515625 6.484375 C-6.18494141 6.12085938 -6.18494141 6.12085938 -5.0625 5.75 C-4.33160156 5.51796875 -3.60070313 5.2859375 -2.84765625 5.046875 C-0.79429444 4.1492447 -0.79429444 4.1492447 -0.24609375 1.890625 C-0.16488281 1.26671875 -0.08367188 0.6428125 0 0 Z " fill="#879AAA" transform="translate(54,52)"/>
<path d="M0 0 C0.66 0.33 1.32 0.66 2 1 C-1.96 4.96 -5.92 8.92 -10 13 C-10 9.28115772 -9.1259934 8.63852271 -6.6875 5.9375 C-5.76517578 4.89916016 -5.76517578 4.89916016 -4.82421875 3.83984375 C-3 2 -3 2 0 0 Z " fill="#98A8B4" transform="translate(27,13)"/>
<path d="M0 0 C0.33 0.66 0.66 1.32 1 2 C-1.35438733 3.42944945 -2.48032433 4.08661261 -5.25 3.625 C-5.8275 3.41875 -6.405 3.2125 -7 3 C-6.01 2.67 -5.02 2.34 -4 2 C-4.99 1.34 -5.98 0.68 -7 0 C-3.88407501 -1.03864166 -2.9737344 -1.09036928 0 0 Z " fill="#617293" transform="translate(52,59)"/>
</svg>
